<?xml version="1.0" encoding="UTF-8"?>
<svg width="344px" height="345px" viewBox="0 0 344 345" version="1.1" xmlns="http://www.w3.org/2000/svg" xmlns:xlink="http://www.w3.org/1999/xlink">
    <!-- Generator: Sketch 48.2 (47327) - http://www.bohemiancoding.com/sketch -->
    <title>Logo</title>
    <desc>Created with Sketch.</desc>
    <defs></defs>
    <g id="Logo" stroke="none" stroke-width="1" fill="none" fill-rule="evenodd" transform="translate(-77.000000, -77.000000)">
        <g transform="translate(51.000000, 50.000000)">
            <path d="M324.017448,218.832557 L351.856805,234.880307 C357.438631,238.113115 359.322498,245.229943 356.112948,250.788511 L321.226535,311.211778 C318.016985,316.770347 310.923414,318.677471 305.341588,315.467921 L277.502231,299.396913 C267.641005,307.3045 256.50061,313.793373 244.197335,318.607698 L244.197335,350.772971 C244.197335,357.192071 239.010888,362.401775 232.568531,362.401775 L162.795705,362.401775 C156.376605,362.401775 151.166901,357.192071 151.166901,350.772971 L151.166901,318.514668 C139.119459,313.793373 127.93255,307.397531 117.931778,299.350398 L89.9993901,315.467921 C84.4408217,318.700728 77.3705087,316.770347 74.1377011,311.211778 L39.2512882,250.788511 C36.0184806,245.229943 37.9256045,238.113115 43.4841729,234.903565 L71.4165609,218.786042 C69.4396641,205.831554 69.4861793,192.946839 71.4165609,180.410988 L43.4841729,164.293465 C37.9256045,161.083915 36.0184806,153.967087 39.2512882,148.408518 L74.1377011,87.9852512 C77.3705087,82.4266828 84.4408217,80.4963013 89.9993901,83.7058513 L117.90852,99.823374 C127.746489,91.9157871 138.910141,85.4036567 151.166901,80.6125893 L151.166901,48.424059 C151.166901,41.9817015 156.376605,36.7952547 162.795705,36.7952547 L232.568531,36.7952547 C239.010888,36.7952547 244.197335,41.9817015 244.197335,48.424059 L244.197335,80.6823621 C256.268034,85.3803991 267.454944,91.799499 277.478973,99.823374 L305.341588,83.7291089 C310.923414,80.5195589 318.016985,82.4266828 321.226535,87.9852512 L356.112948,148.408518 C359.322498,153.967087 357.438631,161.083915 351.856805,164.293465 L324.017448,180.38773 C325.994344,193.342218 325.947829,206.273449 324.017448,218.832557" id="Gear" stroke="#82F2FC" stroke-width="10" fill="#1294EB" stroke-linecap="round" stroke-linejoin="round" transform="translate(197.676531, 199.598515) rotate(15.000000) translate(-197.676531, -199.598515) "></path>
            <g id="Text" transform="translate(111.000000, 161.000000)" font-family="FatFrank-Regular, FatFrank" font-weight="700">
                <text id="setup" font-size="48" letter-spacing="-0.108" fill="#82F2FC">
                    <tspan x="46" y="52">setup</tspan>
                </text>
                <text id="$" font-size="64" letter-spacing="-0.144" fill="#FFFFFF">
                    <tspan x="0" y="59">$</tspan>
                </text>
            </g>
        </g>
    </g>
</svg>